# xmcd
#
# Track frame offsets:
#	182
#	15832
#	32395
#	51302
#	66892
#	92355
#	108592
#	129945
#	143540
#	160762
#	178900
#	197757
#
# Disc length: 2865 seconds
#
# Revision: 0
# Processed by: cddbd v1.4PL0 Copyright (c) Steve Scherf et al.
# Submitted via: audiograbber 1.81.01
#
DISCID=910b2f0c
DTITLE=Wess e Dori Ghezzi - I grandi successi originali cd2
DYEAR=1900
DGENRE=pop
TTITLE0=E l'amore che muore
TTITLE1=E siamo qui
TTITLE2=Qui
TTITLE3=Maledetto,benedetto
TTITLE4=Ancora
TTITLE5=Lista d'attesa
TTITLE6=Corale
TTITLE7=Finalmente soli
TTITLE8=Talmente amore
TTITLE9=Come la prima sera
TTITLE10=Colpo di fulmine
TTITLE11=Amore bellissimo
EXTD=
EXTT0=
EXTT1=
EXTT2=
EXTT3=
EXTT4=
EXTT5=
EXTT6=
EXTT7=
EXTT8=
EXTT9=
EXTT10=
EXTT11=
PLAYORDER=
